<mxfile host="app.diagrams.net" modified="2020-10-16T02:56:50.868Z" agent="5.0 (Windows NT 10.0; WOW64) AppleWebKit/537.36 (KHTML, like Gecko) Chrome/78.0.3904.108 Safari/537.36" etag="kIyE8_jlr5AYtCpvOCfp" version="13.7.9" type="github" pages="3">
  <diagram id="qAoMYeuUkj_qlOZbJjKi" name="Page-1">
    <mxGraphModel dx="1422" dy="746" grid="1" gridSize="10" guides="1" tooltips="1" connect="1" arrows="1" fold="1" page="1" pageScale="1" pageWidth="827" pageHeight="1169" math="0" shadow="0">
      <root>
        <mxCell id="0" />
        <mxCell id="1" parent="0" />
        <mxCell id="pmI48ySR9rzOAMd9ZibN-4" value="&lt;b&gt;&lt;font style=&quot;font-size: 17px&quot;&gt;摩多SDK系统&lt;/font&gt;&lt;/b&gt;" style="rounded=1;whiteSpace=wrap;html=1;fillColor=#dae8fc;strokeColor=#6c8ebf;" parent="1" vertex="1">
          <mxGeometry x="280" y="128" width="120" height="40" as="geometry" />
        </mxCell>
        <mxCell id="pmI48ySR9rzOAMd9ZibN-8" value="" style="line;strokeWidth=2;html=1;" parent="1" vertex="1">
          <mxGeometry x="310" y="30" width="160" height="10" as="geometry" />
        </mxCell>
        <mxCell id="pmI48ySR9rzOAMd9ZibN-16" value="" style="endArrow=none;html=1;entryX=0;entryY=0.5;entryDx=0;entryDy=0;entryPerimeter=0;" parent="1" edge="1">
          <mxGeometry width="50" height="50" relative="1" as="geometry">
            <mxPoint x="109" y="80" as="sourcePoint" />
            <mxPoint x="109" y="55" as="targetPoint" />
            <Array as="points" />
          </mxGeometry>
        </mxCell>
        <mxCell id="pmI48ySR9rzOAMd9ZibN-17" value="" style="endArrow=none;html=1;entryX=1;entryY=0.5;entryDx=0;entryDy=0;entryPerimeter=0;" parent="1" target="pmI48ySR9rzOAMd9ZibN-8" edge="1">
          <mxGeometry width="50" height="50" relative="1" as="geometry">
            <mxPoint x="510" y="10" as="sourcePoint" />
            <mxPoint x="440" y="450" as="targetPoint" />
          </mxGeometry>
        </mxCell>
        <mxCell id="pmI48ySR9rzOAMd9ZibN-36" value="&lt;b&gt;登录模块&lt;/b&gt;" style="rounded=1;whiteSpace=wrap;html=1;fillColor=#f5f5f5;strokeColor=#666666;fontColor=#333333;" parent="1" vertex="1">
          <mxGeometry x="25" y="20" width="130" height="30" as="geometry" />
        </mxCell>
        <mxCell id="pmI48ySR9rzOAMd9ZibN-38" value="&lt;b&gt;功能模块&lt;/b&gt;" style="rounded=1;whiteSpace=wrap;html=1;fillColor=#f5f5f5;strokeColor=#666666;fontColor=#333333;" parent="1" vertex="1">
          <mxGeometry x="540" y="20" width="130" height="30" as="geometry" />
        </mxCell>
        <mxCell id="pmI48ySR9rzOAMd9ZibN-39" value="" style="endArrow=none;html=1;" parent="1" edge="1">
          <mxGeometry width="50" height="50" relative="1" as="geometry">
            <mxPoint x="45" y="138" as="sourcePoint" />
            <mxPoint x="45" y="50" as="targetPoint" />
          </mxGeometry>
        </mxCell>
        <mxCell id="pmI48ySR9rzOAMd9ZibN-40" value="" style="endArrow=none;html=1;" parent="1" edge="1">
          <mxGeometry width="50" height="50" relative="1" as="geometry">
            <mxPoint x="45" y="78" as="sourcePoint" />
            <mxPoint x="75" y="78" as="targetPoint" />
            <Array as="points">
              <mxPoint x="65" y="78" />
            </Array>
          </mxGeometry>
        </mxCell>
        <mxCell id="pmI48ySR9rzOAMd9ZibN-41" value="" style="endArrow=none;html=1;" parent="1" edge="1">
          <mxGeometry width="50" height="50" relative="1" as="geometry">
            <mxPoint x="45" y="108" as="sourcePoint" />
            <mxPoint x="75" y="108" as="targetPoint" />
          </mxGeometry>
        </mxCell>
        <mxCell id="pmI48ySR9rzOAMd9ZibN-42" value="" style="endArrow=none;html=1;" parent="1" edge="1">
          <mxGeometry width="50" height="50" relative="1" as="geometry">
            <mxPoint x="45" y="138" as="sourcePoint" />
            <mxPoint x="75" y="138" as="targetPoint" />
          </mxGeometry>
        </mxCell>
        <mxCell id="pmI48ySR9rzOAMd9ZibN-43" value="注册" style="text;html=1;align=center;verticalAlign=middle;resizable=0;points=[];autosize=1;" parent="1" vertex="1">
          <mxGeometry x="75" y="68" width="40" height="20" as="geometry" />
        </mxCell>
        <mxCell id="pmI48ySR9rzOAMd9ZibN-44" value="登录" style="text;html=1;align=center;verticalAlign=middle;resizable=0;points=[];autosize=1;" parent="1" vertex="1">
          <mxGeometry x="75" y="98" width="40" height="20" as="geometry" />
        </mxCell>
        <mxCell id="pmI48ySR9rzOAMd9ZibN-45" value="&amp;nbsp;修改密码" style="text;html=1;align=center;verticalAlign=middle;resizable=0;points=[];autosize=1;" parent="1" vertex="1">
          <mxGeometry x="70" y="120" width="70" height="20" as="geometry" />
        </mxCell>
        <mxCell id="pmI48ySR9rzOAMd9ZibN-46" value="" style="endArrow=none;html=1;fillColor=#ffff88;strokeColor=#36393d;" parent="1" edge="1">
          <mxGeometry width="50" height="50" relative="1" as="geometry">
            <mxPoint x="715" y="390" as="sourcePoint" />
            <mxPoint x="715" y="270" as="targetPoint" />
          </mxGeometry>
        </mxCell>
        <mxCell id="pmI48ySR9rzOAMd9ZibN-90" value="登录注册模块" style="rounded=1;whiteSpace=wrap;html=1;fillColor=#eeeeee;strokeColor=#36393d;" parent="1" vertex="1">
          <mxGeometry x="150" y="210" width="120" height="30" as="geometry" />
        </mxCell>
        <mxCell id="pmI48ySR9rzOAMd9ZibN-91" value="" style="endArrow=none;html=1;" parent="1" edge="1">
          <mxGeometry width="50" height="50" relative="1" as="geometry">
            <mxPoint x="145" y="740" as="sourcePoint" />
            <mxPoint x="145" y="620" as="targetPoint" />
          </mxGeometry>
        </mxCell>
        <mxCell id="pmI48ySR9rzOAMd9ZibN-92" value="" style="endArrow=none;html=1;" parent="1" edge="1">
          <mxGeometry width="50" height="50" relative="1" as="geometry">
            <mxPoint x="115" y="620" as="sourcePoint" />
            <mxPoint x="145" y="620" as="targetPoint" />
          </mxGeometry>
        </mxCell>
        <mxCell id="pmI48ySR9rzOAMd9ZibN-93" value="" style="endArrow=none;html=1;" parent="1" edge="1">
          <mxGeometry width="50" height="50" relative="1" as="geometry">
            <mxPoint x="115" y="640" as="sourcePoint" />
            <mxPoint x="145" y="640" as="targetPoint" />
          </mxGeometry>
        </mxCell>
        <mxCell id="pmI48ySR9rzOAMd9ZibN-94" value="" style="endArrow=none;html=1;" parent="1" edge="1">
          <mxGeometry width="50" height="50" relative="1" as="geometry">
            <mxPoint x="115" y="660" as="sourcePoint" />
            <mxPoint x="145" y="660" as="targetPoint" />
          </mxGeometry>
        </mxCell>
        <mxCell id="pmI48ySR9rzOAMd9ZibN-95" value="" style="endArrow=none;html=1;" parent="1" edge="1">
          <mxGeometry width="50" height="50" relative="1" as="geometry">
            <mxPoint x="115" y="679.6600000000001" as="sourcePoint" />
            <mxPoint x="145" y="679.6600000000001" as="targetPoint" />
          </mxGeometry>
        </mxCell>
        <mxCell id="pmI48ySR9rzOAMd9ZibN-96" value="" style="endArrow=none;html=1;" parent="1" edge="1">
          <mxGeometry width="50" height="50" relative="1" as="geometry">
            <mxPoint x="115" y="700" as="sourcePoint" />
            <mxPoint x="145" y="700" as="targetPoint" />
          </mxGeometry>
        </mxCell>
        <mxCell id="pmI48ySR9rzOAMd9ZibN-97" value="" style="endArrow=none;html=1;" parent="1" edge="1">
          <mxGeometry width="50" height="50" relative="1" as="geometry">
            <mxPoint x="115" y="720" as="sourcePoint" />
            <mxPoint x="145" y="720" as="targetPoint" />
          </mxGeometry>
        </mxCell>
        <mxCell id="pmI48ySR9rzOAMd9ZibN-98" value="" style="endArrow=none;html=1;" parent="1" edge="1">
          <mxGeometry width="50" height="50" relative="1" as="geometry">
            <mxPoint x="115" y="739.6600000000001" as="sourcePoint" />
            <mxPoint x="145" y="739.6600000000001" as="targetPoint" />
          </mxGeometry>
        </mxCell>
        <mxCell id="pmI48ySR9rzOAMd9ZibN-99" value="查看游戏渠道" style="text;html=1;align=center;verticalAlign=middle;resizable=0;points=[];autosize=1;" parent="1" vertex="1">
          <mxGeometry x="20" y="610" width="90" height="20" as="geometry" />
        </mxCell>
        <mxCell id="pmI48ySR9rzOAMd9ZibN-100" value="新增游戏渠道配置" style="text;html=1;align=center;verticalAlign=middle;resizable=0;points=[];autosize=1;" parent="1" vertex="1">
          <mxGeometry y="630" width="110" height="20" as="geometry" />
        </mxCell>
        <mxCell id="pmI48ySR9rzOAMd9ZibN-101" value="修改游戏渠道配置" style="text;html=1;align=center;verticalAlign=middle;resizable=0;points=[];autosize=1;" parent="1" vertex="1">
          <mxGeometry y="650" width="110" height="20" as="geometry" />
        </mxCell>
        <mxCell id="pmI48ySR9rzOAMd9ZibN-102" value="删除游戏渠道配置" style="text;html=1;align=center;verticalAlign=middle;resizable=0;points=[];autosize=1;" parent="1" vertex="1">
          <mxGeometry y="670" width="110" height="20" as="geometry" />
        </mxCell>
        <mxCell id="pmI48ySR9rzOAMd9ZibN-103" value="刷新游戏渠道缓存" style="text;html=1;align=center;verticalAlign=middle;resizable=0;points=[];autosize=1;" parent="1" vertex="1">
          <mxGeometry y="690" width="110" height="20" as="geometry" />
        </mxCell>
        <mxCell id="pmI48ySR9rzOAMd9ZibN-104" value="游戏渠道关联设置" style="text;html=1;align=center;verticalAlign=middle;resizable=0;points=[];autosize=1;" parent="1" vertex="1">
          <mxGeometry y="710" width="110" height="20" as="geometry" />
        </mxCell>
        <mxCell id="pmI48ySR9rzOAMd9ZibN-105" value="游戏渠道功能开关" style="text;html=1;align=center;verticalAlign=middle;resizable=0;points=[];autosize=1;" parent="1" vertex="1">
          <mxGeometry y="730" width="110" height="20" as="geometry" />
        </mxCell>
        <mxCell id="pmI48ySR9rzOAMd9ZibN-107" value="&lt;b&gt;sdk客户端&lt;/b&gt;" style="shape=cylinder3;whiteSpace=wrap;html=1;boundedLbl=1;backgroundOutline=1;size=15;" parent="1" vertex="1">
          <mxGeometry x="220" y="820" width="60" height="80" as="geometry" />
        </mxCell>
        <mxCell id="pmI48ySR9rzOAMd9ZibN-108" value="&lt;b&gt;sdk服务端&lt;/b&gt;" style="shape=cylinder3;whiteSpace=wrap;html=1;boundedLbl=1;backgroundOutline=1;size=15;" parent="1" vertex="1">
          <mxGeometry x="530" y="820" width="60" height="80" as="geometry" />
        </mxCell>
        <mxCell id="pmI48ySR9rzOAMd9ZibN-116" value="用户信息" style="rounded=1;whiteSpace=wrap;html=1;fillColor=#eeeeee;strokeColor=#36393d;" parent="1" vertex="1">
          <mxGeometry x="690" y="240" width="120" height="30" as="geometry" />
        </mxCell>
        <mxCell id="pmI48ySR9rzOAMd9ZibN-141" value="" style="endArrow=classic;html=1;exitX=1;exitY=0;exitDx=0;exitDy=15;exitPerimeter=0;" parent="1" source="pmI48ySR9rzOAMd9ZibN-107" edge="1">
          <mxGeometry width="50" height="50" relative="1" as="geometry">
            <mxPoint x="360" y="930" as="sourcePoint" />
            <mxPoint x="530" y="835" as="targetPoint" />
          </mxGeometry>
        </mxCell>
        <mxCell id="pmI48ySR9rzOAMd9ZibN-142" value="" style="endArrow=classic;html=1;exitX=0;exitY=1;exitDx=0;exitDy=-15;exitPerimeter=0;entryX=1;entryY=1;entryDx=0;entryDy=-15;entryPerimeter=0;" parent="1" source="pmI48ySR9rzOAMd9ZibN-108" target="pmI48ySR9rzOAMd9ZibN-107" edge="1">
          <mxGeometry width="50" height="50" relative="1" as="geometry">
            <mxPoint x="360" y="930" as="sourcePoint" />
            <mxPoint x="410" y="880" as="targetPoint" />
          </mxGeometry>
        </mxCell>
        <mxCell id="pmI48ySR9rzOAMd9ZibN-143" value="发起创建订单请求" style="text;html=1;align=center;verticalAlign=middle;resizable=0;points=[];autosize=1;" parent="1" vertex="1">
          <mxGeometry x="305" y="810" width="110" height="20" as="geometry" />
        </mxCell>
        <mxCell id="pmI48ySR9rzOAMd9ZibN-144" value="&amp;nbsp; &amp;nbsp; &amp;nbsp; &amp;nbsp; &amp;nbsp; &amp;nbsp;响应请求结果" style="text;html=1;align=center;verticalAlign=middle;resizable=0;points=[];autosize=1;" parent="1" vertex="1">
          <mxGeometry x="270" y="880" width="120" height="20" as="geometry" />
        </mxCell>
        <mxCell id="pmI48ySR9rzOAMd9ZibN-145" value="" style="endArrow=none;html=1;" parent="1" edge="1">
          <mxGeometry width="50" height="50" relative="1" as="geometry">
            <mxPoint x="180" y="349.6600000000001" as="sourcePoint" />
            <mxPoint x="180" y="349.6600000000001" as="targetPoint" />
          </mxGeometry>
        </mxCell>
        <mxCell id="pmI48ySR9rzOAMd9ZibN-148" value="" style="line;strokeWidth=4;direction=south;html=1;perimeter=backbonePerimeter;points=[];outlineConnect=0;" parent="1" vertex="1">
          <mxGeometry x="335" y="168" width="10" height="32" as="geometry" />
        </mxCell>
        <mxCell id="pmI48ySR9rzOAMd9ZibN-149" value="" style="line;strokeWidth=2;html=1;" parent="1" vertex="1">
          <mxGeometry x="265" y="190" width="160" height="10" as="geometry" />
        </mxCell>
        <mxCell id="pmI48ySR9rzOAMd9ZibN-152" value="" style="endArrow=none;html=1;entryX=0.458;entryY=0.703;entryDx=0;entryDy=0;entryPerimeter=0;" parent="1" target="pmI48ySR9rzOAMd9ZibN-149" edge="1">
          <mxGeometry width="50" height="50" relative="1" as="geometry">
            <mxPoint x="338" y="210" as="sourcePoint" />
            <mxPoint x="410" y="200" as="targetPoint" />
          </mxGeometry>
        </mxCell>
        <mxCell id="pmI48ySR9rzOAMd9ZibN-153" value="" style="endArrow=none;html=1;entryX=0;entryY=0.5;entryDx=0;entryDy=0;entryPerimeter=0;" parent="1" target="pmI48ySR9rzOAMd9ZibN-149" edge="1">
          <mxGeometry width="50" height="50" relative="1" as="geometry">
            <mxPoint x="265" y="210" as="sourcePoint" />
            <mxPoint x="410" y="200" as="targetPoint" />
          </mxGeometry>
        </mxCell>
        <mxCell id="pmI48ySR9rzOAMd9ZibN-154" value="" style="endArrow=none;html=1;entryX=1;entryY=0.5;entryDx=0;entryDy=0;entryPerimeter=0;" parent="1" target="pmI48ySR9rzOAMd9ZibN-149" edge="1">
          <mxGeometry width="50" height="50" relative="1" as="geometry">
            <mxPoint x="425" y="210" as="sourcePoint" />
            <mxPoint x="410" y="200" as="targetPoint" />
          </mxGeometry>
        </mxCell>
        <mxCell id="pmI48ySR9rzOAMd9ZibN-155" value="基础功能模块" style="rounded=1;whiteSpace=wrap;html=1;fillColor=#eeeeee;strokeColor=#36393d;" parent="1" vertex="1">
          <mxGeometry x="280" y="210" width="120" height="30" as="geometry" />
        </mxCell>
        <mxCell id="pmI48ySR9rzOAMd9ZibN-156" value="其它功能模块" style="rounded=1;whiteSpace=wrap;html=1;fillColor=#eeeeee;strokeColor=#36393d;" parent="1" vertex="1">
          <mxGeometry x="420" y="210" width="120" height="30" as="geometry" />
        </mxCell>
        <mxCell id="pmI48ySR9rzOAMd9ZibN-157" value="" style="endArrow=none;html=1;entryX=0.052;entryY=1.062;entryDx=0;entryDy=0;entryPerimeter=0;" parent="1" target="pmI48ySR9rzOAMd9ZibN-90" edge="1">
          <mxGeometry width="50" height="50" relative="1" as="geometry">
            <mxPoint x="156" y="280" as="sourcePoint" />
            <mxPoint x="410" y="390" as="targetPoint" />
          </mxGeometry>
        </mxCell>
        <mxCell id="pmI48ySR9rzOAMd9ZibN-159" value="" style="endArrow=none;html=1;" parent="1" edge="1">
          <mxGeometry width="50" height="50" relative="1" as="geometry">
            <mxPoint x="155" y="260" as="sourcePoint" />
            <mxPoint x="165" y="260" as="targetPoint" />
            <Array as="points">
              <mxPoint x="155" y="260" />
            </Array>
          </mxGeometry>
        </mxCell>
        <mxCell id="pmI48ySR9rzOAMd9ZibN-160" value="" style="endArrow=none;html=1;" parent="1" edge="1">
          <mxGeometry width="50" height="50" relative="1" as="geometry">
            <mxPoint x="155" y="280" as="sourcePoint" />
            <mxPoint x="165" y="280" as="targetPoint" />
          </mxGeometry>
        </mxCell>
        <mxCell id="pmI48ySR9rzOAMd9ZibN-162" value="注册" style="text;html=1;align=center;verticalAlign=middle;resizable=0;points=[];autosize=1;" parent="1" vertex="1">
          <mxGeometry x="160" y="250" width="40" height="20" as="geometry" />
        </mxCell>
        <mxCell id="pmI48ySR9rzOAMd9ZibN-163" value="登录" style="text;html=1;align=center;verticalAlign=middle;resizable=0;points=[];autosize=1;" parent="1" vertex="1">
          <mxGeometry x="160" y="270" width="40" height="20" as="geometry" />
        </mxCell>
        <mxCell id="pmI48ySR9rzOAMd9ZibN-164" value="" style="endArrow=none;html=1;entryX=0.107;entryY=1.039;entryDx=0;entryDy=0;entryPerimeter=0;" parent="1" target="pmI48ySR9rzOAMd9ZibN-155" edge="1">
          <mxGeometry width="50" height="50" relative="1" as="geometry">
            <mxPoint x="293" y="460" as="sourcePoint" />
            <mxPoint x="410" y="390" as="targetPoint" />
          </mxGeometry>
        </mxCell>
        <mxCell id="pmI48ySR9rzOAMd9ZibN-165" value="" style="endArrow=none;html=1;" parent="1" edge="1">
          <mxGeometry width="50" height="50" relative="1" as="geometry">
            <mxPoint x="295" y="259.66" as="sourcePoint" />
            <mxPoint x="305" y="259.66" as="targetPoint" />
            <Array as="points">
              <mxPoint x="295" y="259.66" />
            </Array>
          </mxGeometry>
        </mxCell>
        <mxCell id="pmI48ySR9rzOAMd9ZibN-166" value="" style="endArrow=none;html=1;" parent="1" edge="1">
          <mxGeometry width="50" height="50" relative="1" as="geometry">
            <mxPoint x="295" y="279.6600000000001" as="sourcePoint" />
            <mxPoint x="305" y="279.6600000000001" as="targetPoint" />
            <Array as="points">
              <mxPoint x="295" y="279.66" />
            </Array>
          </mxGeometry>
        </mxCell>
        <mxCell id="pmI48ySR9rzOAMd9ZibN-167" value="" style="endArrow=none;html=1;" parent="1" edge="1">
          <mxGeometry width="50" height="50" relative="1" as="geometry">
            <mxPoint x="295" y="300.00000000000006" as="sourcePoint" />
            <mxPoint x="305" y="300.00000000000006" as="targetPoint" />
            <Array as="points">
              <mxPoint x="295" y="300" />
            </Array>
          </mxGeometry>
        </mxCell>
        <mxCell id="pmI48ySR9rzOAMd9ZibN-168" value="" style="endArrow=none;html=1;" parent="1" edge="1">
          <mxGeometry width="50" height="50" relative="1" as="geometry">
            <mxPoint x="295" y="320" as="sourcePoint" />
            <mxPoint x="305" y="320" as="targetPoint" />
            <Array as="points">
              <mxPoint x="295" y="320" />
            </Array>
          </mxGeometry>
        </mxCell>
        <mxCell id="pmI48ySR9rzOAMd9ZibN-169" value="" style="endArrow=none;html=1;" parent="1" edge="1">
          <mxGeometry width="50" height="50" relative="1" as="geometry">
            <mxPoint x="295" y="340" as="sourcePoint" />
            <mxPoint x="305" y="340" as="targetPoint" />
            <Array as="points">
              <mxPoint x="295" y="340" />
            </Array>
          </mxGeometry>
        </mxCell>
        <mxCell id="pmI48ySR9rzOAMd9ZibN-170" value="" style="endArrow=none;html=1;" parent="1" edge="1">
          <mxGeometry width="50" height="50" relative="1" as="geometry">
            <mxPoint x="295" y="360" as="sourcePoint" />
            <mxPoint x="305" y="360" as="targetPoint" />
            <Array as="points">
              <mxPoint x="295" y="360" />
            </Array>
          </mxGeometry>
        </mxCell>
        <mxCell id="pmI48ySR9rzOAMd9ZibN-171" value="" style="endArrow=none;html=1;" parent="1" edge="1">
          <mxGeometry width="50" height="50" relative="1" as="geometry">
            <mxPoint x="295" y="380" as="sourcePoint" />
            <mxPoint x="305" y="380" as="targetPoint" />
            <Array as="points">
              <mxPoint x="295" y="380" />
            </Array>
          </mxGeometry>
        </mxCell>
        <mxCell id="pmI48ySR9rzOAMd9ZibN-172" value="" style="endArrow=none;html=1;" parent="1" edge="1">
          <mxGeometry width="50" height="50" relative="1" as="geometry">
            <mxPoint x="295" y="400" as="sourcePoint" />
            <mxPoint x="305" y="400" as="targetPoint" />
            <Array as="points">
              <mxPoint x="295" y="400" />
            </Array>
          </mxGeometry>
        </mxCell>
        <mxCell id="pmI48ySR9rzOAMd9ZibN-173" value="" style="endArrow=none;html=1;" parent="1" edge="1">
          <mxGeometry width="50" height="50" relative="1" as="geometry">
            <mxPoint x="295" y="420" as="sourcePoint" />
            <mxPoint x="305" y="420" as="targetPoint" />
            <Array as="points">
              <mxPoint x="295" y="420" />
            </Array>
          </mxGeometry>
        </mxCell>
        <mxCell id="pmI48ySR9rzOAMd9ZibN-174" value="" style="endArrow=none;html=1;" parent="1" edge="1">
          <mxGeometry width="50" height="50" relative="1" as="geometry">
            <mxPoint x="295" y="440" as="sourcePoint" />
            <mxPoint x="305" y="440" as="targetPoint" />
            <Array as="points">
              <mxPoint x="295" y="440" />
            </Array>
          </mxGeometry>
        </mxCell>
        <mxCell id="pmI48ySR9rzOAMd9ZibN-175" value="" style="endArrow=none;html=1;" parent="1" edge="1">
          <mxGeometry width="50" height="50" relative="1" as="geometry">
            <mxPoint x="295" y="460" as="sourcePoint" />
            <mxPoint x="305" y="460" as="targetPoint" />
            <Array as="points">
              <mxPoint x="295" y="460" />
            </Array>
          </mxGeometry>
        </mxCell>
        <mxCell id="pmI48ySR9rzOAMd9ZibN-176" value="打开地址" style="text;html=1;align=center;verticalAlign=middle;resizable=0;points=[];autosize=1;" parent="1" vertex="1">
          <mxGeometry x="300" y="250" width="60" height="20" as="geometry" />
        </mxCell>
        <mxCell id="pmI48ySR9rzOAMd9ZibN-177" value="游戏配置" style="text;html=1;align=center;verticalAlign=middle;resizable=0;points=[];autosize=1;" parent="1" vertex="1">
          <mxGeometry x="300" y="270" width="60" height="20" as="geometry" />
        </mxCell>
        <mxCell id="pmI48ySR9rzOAMd9ZibN-178" value="渠道配置" style="text;html=1;align=center;verticalAlign=middle;resizable=0;points=[];autosize=1;" parent="1" vertex="1">
          <mxGeometry x="300" y="290" width="60" height="20" as="geometry" />
        </mxCell>
        <mxCell id="pmI48ySR9rzOAMd9ZibN-179" value="校验" style="text;html=1;align=center;verticalAlign=middle;resizable=0;points=[];autosize=1;" parent="1" vertex="1">
          <mxGeometry x="300" y="310" width="40" height="20" as="geometry" />
        </mxCell>
        <mxCell id="pmI48ySR9rzOAMd9ZibN-180" value="生成用户" style="text;html=1;align=center;verticalAlign=middle;resizable=0;points=[];autosize=1;" parent="1" vertex="1">
          <mxGeometry x="300" y="330" width="60" height="20" as="geometry" />
        </mxCell>
        <mxCell id="pmI48ySR9rzOAMd9ZibN-181" value="重定向" style="text;html=1;align=center;verticalAlign=middle;resizable=0;points=[];autosize=1;" parent="1" vertex="1">
          <mxGeometry x="300" y="350" width="50" height="20" as="geometry" />
        </mxCell>
        <mxCell id="pmI48ySR9rzOAMd9ZibN-182" value="唤起支付" style="text;html=1;align=center;verticalAlign=middle;resizable=0;points=[];autosize=1;" parent="1" vertex="1">
          <mxGeometry x="300" y="370" width="60" height="20" as="geometry" />
        </mxCell>
        <mxCell id="pmI48ySR9rzOAMd9ZibN-183" value="创建订单" style="text;html=1;align=center;verticalAlign=middle;resizable=0;points=[];autosize=1;" parent="1" vertex="1">
          <mxGeometry x="300" y="390" width="60" height="20" as="geometry" />
        </mxCell>
        <mxCell id="pmI48ySR9rzOAMd9ZibN-184" value="订单通知" style="text;html=1;align=center;verticalAlign=middle;resizable=0;points=[];autosize=1;" parent="1" vertex="1">
          <mxGeometry x="300" y="410" width="60" height="20" as="geometry" />
        </mxCell>
        <mxCell id="pmI48ySR9rzOAMd9ZibN-185" value="debug模式" style="text;html=1;align=center;verticalAlign=middle;resizable=0;points=[];autosize=1;" parent="1" vertex="1">
          <mxGeometry x="300" y="430" width="70" height="20" as="geometry" />
        </mxCell>
        <mxCell id="pmI48ySR9rzOAMd9ZibN-186" value="自测模式" style="text;html=1;align=center;verticalAlign=middle;resizable=0;points=[];autosize=1;" parent="1" vertex="1">
          <mxGeometry x="300" y="450" width="60" height="20" as="geometry" />
        </mxCell>
        <mxCell id="pmI48ySR9rzOAMd9ZibN-187" value="" style="endArrow=none;html=1;" parent="1" edge="1">
          <mxGeometry width="50" height="50" relative="1" as="geometry">
            <mxPoint x="440" y="380" as="sourcePoint" />
            <mxPoint x="440" y="240" as="targetPoint" />
          </mxGeometry>
        </mxCell>
        <mxCell id="pmI48ySR9rzOAMd9ZibN-188" value="" style="endArrow=none;html=1;" parent="1" edge="1">
          <mxGeometry width="50" height="50" relative="1" as="geometry">
            <mxPoint x="440" y="260.31" as="sourcePoint" />
            <mxPoint x="450" y="259.97" as="targetPoint" />
            <Array as="points">
              <mxPoint x="440" y="259.66" />
            </Array>
          </mxGeometry>
        </mxCell>
        <mxCell id="pmI48ySR9rzOAMd9ZibN-189" value="" style="endArrow=none;html=1;" parent="1" edge="1">
          <mxGeometry width="50" height="50" relative="1" as="geometry">
            <mxPoint x="440" y="280.30999999999995" as="sourcePoint" />
            <mxPoint x="450" y="279.97" as="targetPoint" />
            <Array as="points">
              <mxPoint x="440" y="279.66" />
            </Array>
          </mxGeometry>
        </mxCell>
        <mxCell id="pmI48ySR9rzOAMd9ZibN-190" value="" style="endArrow=none;html=1;" parent="1" edge="1">
          <mxGeometry width="50" height="50" relative="1" as="geometry">
            <mxPoint x="440" y="300.30999999999995" as="sourcePoint" />
            <mxPoint x="450" y="299.97" as="targetPoint" />
            <Array as="points">
              <mxPoint x="440" y="299.66" />
            </Array>
          </mxGeometry>
        </mxCell>
        <mxCell id="pmI48ySR9rzOAMd9ZibN-191" value="" style="endArrow=none;html=1;" parent="1" edge="1">
          <mxGeometry width="50" height="50" relative="1" as="geometry">
            <mxPoint x="440" y="320.30999999999995" as="sourcePoint" />
            <mxPoint x="450" y="319.97" as="targetPoint" />
            <Array as="points">
              <mxPoint x="440" y="319.66" />
            </Array>
          </mxGeometry>
        </mxCell>
        <mxCell id="pmI48ySR9rzOAMd9ZibN-192" value="" style="endArrow=none;html=1;" parent="1" edge="1">
          <mxGeometry width="50" height="50" relative="1" as="geometry">
            <mxPoint x="440" y="340.30999999999995" as="sourcePoint" />
            <mxPoint x="450" y="339.97" as="targetPoint" />
            <Array as="points">
              <mxPoint x="440" y="339.66" />
            </Array>
          </mxGeometry>
        </mxCell>
        <mxCell id="pmI48ySR9rzOAMd9ZibN-193" value="" style="endArrow=none;html=1;" parent="1" edge="1">
          <mxGeometry width="50" height="50" relative="1" as="geometry">
            <mxPoint x="440" y="360.30999999999995" as="sourcePoint" />
            <mxPoint x="450" y="359.97" as="targetPoint" />
            <Array as="points">
              <mxPoint x="440" y="359.66" />
            </Array>
          </mxGeometry>
        </mxCell>
        <mxCell id="pmI48ySR9rzOAMd9ZibN-194" value="" style="endArrow=none;html=1;" parent="1" edge="1">
          <mxGeometry width="50" height="50" relative="1" as="geometry">
            <mxPoint x="440" y="380.30999999999995" as="sourcePoint" />
            <mxPoint x="450" y="379.97" as="targetPoint" />
            <Array as="points">
              <mxPoint x="440" y="379.66" />
            </Array>
          </mxGeometry>
        </mxCell>
        <mxCell id="pmI48ySR9rzOAMd9ZibN-195" value="绑定手机&lt;br&gt;" style="text;html=1;align=center;verticalAlign=middle;resizable=0;points=[];autosize=1;" parent="1" vertex="1">
          <mxGeometry x="450" y="250" width="60" height="20" as="geometry" />
        </mxCell>
        <mxCell id="pmI48ySR9rzOAMd9ZibN-196" value="实名认证" style="text;html=1;align=center;verticalAlign=middle;resizable=0;points=[];autosize=1;" parent="1" vertex="1">
          <mxGeometry x="450" y="270" width="60" height="20" as="geometry" />
        </mxCell>
        <mxCell id="pmI48ySR9rzOAMd9ZibN-197" value="分享" style="text;html=1;align=center;verticalAlign=middle;resizable=0;points=[];autosize=1;" parent="1" vertex="1">
          <mxGeometry x="450" y="290" width="40" height="20" as="geometry" />
        </mxCell>
        <mxCell id="pmI48ySR9rzOAMd9ZibN-198" value="邀请&lt;br&gt;" style="text;html=1;align=center;verticalAlign=middle;resizable=0;points=[];autosize=1;" parent="1" vertex="1">
          <mxGeometry x="450" y="310" width="40" height="20" as="geometry" />
        </mxCell>
        <mxCell id="pmI48ySR9rzOAMd9ZibN-199" value="关注" style="text;html=1;align=center;verticalAlign=middle;resizable=0;points=[];autosize=1;" parent="1" vertex="1">
          <mxGeometry x="450" y="330" width="40" height="20" as="geometry" />
        </mxCell>
        <mxCell id="pmI48ySR9rzOAMd9ZibN-200" value="绑定账号" style="text;html=1;align=center;verticalAlign=middle;resizable=0;points=[];autosize=1;" parent="1" vertex="1">
          <mxGeometry x="450" y="350" width="60" height="20" as="geometry" />
        </mxCell>
        <mxCell id="pmI48ySR9rzOAMd9ZibN-201" value="数据上报" style="text;html=1;align=center;verticalAlign=middle;resizable=0;points=[];autosize=1;" parent="1" vertex="1">
          <mxGeometry x="450" y="370" width="60" height="20" as="geometry" />
        </mxCell>
      </root>
    </mxGraphModel>
  </diagram>
  <diagram id="jLYIlxE6M-nqX_8M_a2Z" name="Page-2">
    <mxGraphModel dx="1422" dy="746" grid="1" gridSize="10" guides="1" tooltips="1" connect="1" arrows="1" fold="1" page="1" pageScale="1" pageWidth="827" pageHeight="1169" math="0" shadow="0">
      <root>
        <mxCell id="SZmsTWTxK-urdWq4lrYK-0" />
        <mxCell id="SZmsTWTxK-urdWq4lrYK-1" parent="SZmsTWTxK-urdWq4lrYK-0" />
        <mxCell id="SZmsTWTxK-urdWq4lrYK-3" value="渠道游戏入口地址" style="shape=cylinder3;whiteSpace=wrap;html=1;boundedLbl=1;backgroundOutline=1;size=15;fontStyle=1" parent="SZmsTWTxK-urdWq4lrYK-1" vertex="1">
          <mxGeometry x="120" y="290" width="60" height="120" as="geometry" />
        </mxCell>
        <mxCell id="SZmsTWTxK-urdWq4lrYK-4" value="sdk服务端&lt;br&gt;" style="shape=cylinder3;whiteSpace=wrap;html=1;boundedLbl=1;backgroundOutline=1;size=15;fontStyle=1" parent="SZmsTWTxK-urdWq4lrYK-1" vertex="1">
          <mxGeometry x="300" y="290" width="60" height="120" as="geometry" />
        </mxCell>
        <mxCell id="SZmsTWTxK-urdWq4lrYK-5" value="游戏客户端" style="shape=cylinder3;whiteSpace=wrap;html=1;boundedLbl=1;backgroundOutline=1;size=15;fontStyle=1" parent="SZmsTWTxK-urdWq4lrYK-1" vertex="1">
          <mxGeometry x="530" y="290" width="60" height="120" as="geometry" />
        </mxCell>
        <mxCell id="SZmsTWTxK-urdWq4lrYK-6" value="" style="endArrow=classic;html=1;exitX=1.033;exitY=0.592;exitDx=0;exitDy=0;exitPerimeter=0;entryX=-0.067;entryY=0.6;entryDx=0;entryDy=0;entryPerimeter=0;" parent="SZmsTWTxK-urdWq4lrYK-1" source="SZmsTWTxK-urdWq4lrYK-3" target="SZmsTWTxK-urdWq4lrYK-4" edge="1">
          <mxGeometry width="50" height="50" relative="1" as="geometry">
            <mxPoint x="390" y="410" as="sourcePoint" />
            <mxPoint x="440" y="360" as="targetPoint" />
          </mxGeometry>
        </mxCell>
        <mxCell id="SZmsTWTxK-urdWq4lrYK-7" value="" style="endArrow=classic;html=1;exitX=1.067;exitY=0.608;exitDx=0;exitDy=0;exitPerimeter=0;entryX=-0.017;entryY=0.608;entryDx=0;entryDy=0;entryPerimeter=0;" parent="SZmsTWTxK-urdWq4lrYK-1" source="SZmsTWTxK-urdWq4lrYK-4" target="SZmsTWTxK-urdWq4lrYK-5" edge="1">
          <mxGeometry width="50" height="50" relative="1" as="geometry">
            <mxPoint x="390" y="410" as="sourcePoint" />
            <mxPoint x="440" y="360" as="targetPoint" />
          </mxGeometry>
        </mxCell>
        <mxCell id="SZmsTWTxK-urdWq4lrYK-8" value="跳转到sdk" style="text;html=1;align=center;verticalAlign=middle;resizable=0;points=[];autosize=1;fontStyle=1" parent="SZmsTWTxK-urdWq4lrYK-1" vertex="1">
          <mxGeometry x="185" y="330" width="70" height="20" as="geometry" />
        </mxCell>
        <mxCell id="SZmsTWTxK-urdWq4lrYK-9" value="sdk跳转到游戏客户端地址&lt;br&gt;" style="text;html=1;align=center;verticalAlign=middle;resizable=0;points=[];autosize=1;fontStyle=1" parent="SZmsTWTxK-urdWq4lrYK-1" vertex="1">
          <mxGeometry x="365" y="330" width="160" height="20" as="geometry" />
        </mxCell>
      </root>
    </mxGraphModel>
  </diagram>
  <diagram id="igPsgSZz47skrPUZDNZl" name="Page-3">
    <mxGraphModel dx="1422" dy="746" grid="1" gridSize="10" guides="1" tooltips="1" connect="1" arrows="1" fold="1" page="1" pageScale="1" pageWidth="827" pageHeight="1169" math="0" shadow="0">
      <root>
        <mxCell id="J-hEHQAsKZeQdaMJV9M0-0" />
        <mxCell id="J-hEHQAsKZeQdaMJV9M0-1" parent="J-hEHQAsKZeQdaMJV9M0-0" />
        <mxCell id="3HXDtZ4BHIWOM7_SsJX8-0" value="&lt;font style=&quot;font-size: 22px&quot;&gt;游戏配置&lt;/font&gt;" style="rounded=1;whiteSpace=wrap;html=1;fillColor=#cce5ff;strokeColor=#36393d;fontStyle=1" vertex="1" parent="J-hEHQAsKZeQdaMJV9M0-1">
          <mxGeometry x="80" y="30" width="120" height="60" as="geometry" />
        </mxCell>
        <mxCell id="3HXDtZ4BHIWOM7_SsJX8-1" value="" style="endArrow=none;html=1;entryX=0.333;entryY=1.067;entryDx=0;entryDy=0;entryPerimeter=0;" edge="1" parent="J-hEHQAsKZeQdaMJV9M0-1" target="3HXDtZ4BHIWOM7_SsJX8-0">
          <mxGeometry width="50" height="50" relative="1" as="geometry">
            <mxPoint x="120" y="300" as="sourcePoint" />
            <mxPoint x="440" y="360" as="targetPoint" />
          </mxGeometry>
        </mxCell>
        <mxCell id="3HXDtZ4BHIWOM7_SsJX8-2" value="" style="endArrow=none;html=1;" edge="1" parent="J-hEHQAsKZeQdaMJV9M0-1">
          <mxGeometry width="50" height="50" relative="1" as="geometry">
            <mxPoint x="120" y="120" as="sourcePoint" />
            <mxPoint x="160" y="120" as="targetPoint" />
          </mxGeometry>
        </mxCell>
        <mxCell id="3HXDtZ4BHIWOM7_SsJX8-3" value="" style="endArrow=none;html=1;" edge="1" parent="J-hEHQAsKZeQdaMJV9M0-1">
          <mxGeometry width="50" height="50" relative="1" as="geometry">
            <mxPoint x="120" y="200" as="sourcePoint" />
            <mxPoint x="160" y="200" as="targetPoint" />
          </mxGeometry>
        </mxCell>
        <mxCell id="3HXDtZ4BHIWOM7_SsJX8-4" value="" style="endArrow=none;html=1;" edge="1" parent="J-hEHQAsKZeQdaMJV9M0-1">
          <mxGeometry width="50" height="50" relative="1" as="geometry">
            <mxPoint x="120" y="160" as="sourcePoint" />
            <mxPoint x="160" y="160" as="targetPoint" />
          </mxGeometry>
        </mxCell>
        <mxCell id="3HXDtZ4BHIWOM7_SsJX8-5" value="" style="endArrow=none;html=1;" edge="1" parent="J-hEHQAsKZeQdaMJV9M0-1">
          <mxGeometry width="50" height="50" relative="1" as="geometry">
            <mxPoint x="120" y="250" as="sourcePoint" />
            <mxPoint x="160" y="250" as="targetPoint" />
          </mxGeometry>
        </mxCell>
        <mxCell id="3HXDtZ4BHIWOM7_SsJX8-6" value="&lt;font style=&quot;font-size: 15px&quot;&gt;游戏分享项配置&lt;/font&gt;" style="text;html=1;align=center;verticalAlign=middle;resizable=0;points=[];autosize=1;" vertex="1" parent="J-hEHQAsKZeQdaMJV9M0-1">
          <mxGeometry x="155" y="110" width="120" height="20" as="geometry" />
        </mxCell>
        <mxCell id="3HXDtZ4BHIWOM7_SsJX8-8" value="&lt;span style=&quot;font-size: 15px&quot;&gt;游戏充值项配置&lt;/span&gt;" style="text;html=1;align=center;verticalAlign=middle;resizable=0;points=[];autosize=1;" vertex="1" parent="J-hEHQAsKZeQdaMJV9M0-1">
          <mxGeometry x="155" y="150" width="120" height="20" as="geometry" />
        </mxCell>
        <mxCell id="3HXDtZ4BHIWOM7_SsJX8-9" value="&lt;font style=&quot;font-size: 15px&quot;&gt;游戏登录、充值回调地址配置&lt;/font&gt;" style="text;html=1;align=center;verticalAlign=middle;resizable=0;points=[];autosize=1;" vertex="1" parent="J-hEHQAsKZeQdaMJV9M0-1">
          <mxGeometry x="160" y="190" width="210" height="20" as="geometry" />
        </mxCell>
        <mxCell id="3HXDtZ4BHIWOM7_SsJX8-10" value="&lt;font style=&quot;font-size: 15px&quot;&gt;游戏配置缓存&lt;/font&gt;" style="text;html=1;align=center;verticalAlign=middle;resizable=0;points=[];autosize=1;" vertex="1" parent="J-hEHQAsKZeQdaMJV9M0-1">
          <mxGeometry x="155" y="240" width="110" height="20" as="geometry" />
        </mxCell>
        <mxCell id="3HXDtZ4BHIWOM7_SsJX8-11" value="" style="endArrow=none;html=1;" edge="1" parent="J-hEHQAsKZeQdaMJV9M0-1">
          <mxGeometry width="50" height="50" relative="1" as="geometry">
            <mxPoint x="120" y="300" as="sourcePoint" />
            <mxPoint x="160" y="300" as="targetPoint" />
          </mxGeometry>
        </mxCell>
        <mxCell id="3HXDtZ4BHIWOM7_SsJX8-12" value="&lt;font style=&quot;font-size: 15px&quot;&gt;游戏功能开关配置&lt;/font&gt;" style="text;html=1;align=center;verticalAlign=middle;resizable=0;points=[];autosize=1;" vertex="1" parent="J-hEHQAsKZeQdaMJV9M0-1">
          <mxGeometry x="160" y="290" width="140" height="20" as="geometry" />
        </mxCell>
        <mxCell id="3HXDtZ4BHIWOM7_SsJX8-14" value="&lt;font style=&quot;font-size: 22px&quot;&gt;渠道配置&lt;/font&gt;" style="rounded=1;whiteSpace=wrap;html=1;fillColor=#cce5ff;strokeColor=#36393d;fontStyle=1" vertex="1" parent="J-hEHQAsKZeQdaMJV9M0-1">
          <mxGeometry x="530" y="30" width="120" height="60" as="geometry" />
        </mxCell>
        <mxCell id="3HXDtZ4BHIWOM7_SsJX8-15" value="" style="endArrow=none;html=1;entryX=0.333;entryY=1.067;entryDx=0;entryDy=0;entryPerimeter=0;" edge="1" parent="J-hEHQAsKZeQdaMJV9M0-1">
          <mxGeometry width="50" height="50" relative="1" as="geometry">
            <mxPoint x="560" y="270" as="sourcePoint" />
            <mxPoint x="560" y="89.99999999999999" as="targetPoint" />
          </mxGeometry>
        </mxCell>
        <mxCell id="3HXDtZ4BHIWOM7_SsJX8-17" value="" style="endArrow=none;html=1;" edge="1" parent="J-hEHQAsKZeQdaMJV9M0-1">
          <mxGeometry width="50" height="50" relative="1" as="geometry">
            <mxPoint x="560" y="119.5" as="sourcePoint" />
            <mxPoint x="600" y="119.5" as="targetPoint" />
          </mxGeometry>
        </mxCell>
        <mxCell id="3HXDtZ4BHIWOM7_SsJX8-18" value="&lt;font style=&quot;font-size: 15px&quot;&gt;渠道分享项配置&lt;/font&gt;" style="text;html=1;align=center;verticalAlign=middle;resizable=0;points=[];autosize=1;" vertex="1" parent="J-hEHQAsKZeQdaMJV9M0-1">
          <mxGeometry x="600" y="110" width="120" height="20" as="geometry" />
        </mxCell>
        <mxCell id="3HXDtZ4BHIWOM7_SsJX8-19" value="" style="endArrow=none;html=1;" edge="1" parent="J-hEHQAsKZeQdaMJV9M0-1">
          <mxGeometry width="50" height="50" relative="1" as="geometry">
            <mxPoint x="560" y="150" as="sourcePoint" />
            <mxPoint x="600" y="150" as="targetPoint" />
          </mxGeometry>
        </mxCell>
        <mxCell id="3HXDtZ4BHIWOM7_SsJX8-20" value="" style="endArrow=none;html=1;" edge="1" parent="J-hEHQAsKZeQdaMJV9M0-1">
          <mxGeometry width="50" height="50" relative="1" as="geometry">
            <mxPoint x="560" y="180" as="sourcePoint" />
            <mxPoint x="600" y="180" as="targetPoint" />
          </mxGeometry>
        </mxCell>
        <mxCell id="3HXDtZ4BHIWOM7_SsJX8-21" value="" style="endArrow=none;html=1;" edge="1" parent="J-hEHQAsKZeQdaMJV9M0-1">
          <mxGeometry width="50" height="50" relative="1" as="geometry">
            <mxPoint x="560" y="210" as="sourcePoint" />
            <mxPoint x="600" y="210" as="targetPoint" />
          </mxGeometry>
        </mxCell>
        <mxCell id="3HXDtZ4BHIWOM7_SsJX8-22" value="" style="endArrow=none;html=1;" edge="1" parent="J-hEHQAsKZeQdaMJV9M0-1">
          <mxGeometry width="50" height="50" relative="1" as="geometry">
            <mxPoint x="560" y="240" as="sourcePoint" />
            <mxPoint x="600" y="240" as="targetPoint" />
          </mxGeometry>
        </mxCell>
        <mxCell id="3HXDtZ4BHIWOM7_SsJX8-23" value="" style="endArrow=none;html=1;" edge="1" parent="J-hEHQAsKZeQdaMJV9M0-1">
          <mxGeometry width="50" height="50" relative="1" as="geometry">
            <mxPoint x="560" y="270" as="sourcePoint" />
            <mxPoint x="600" y="270" as="targetPoint" />
          </mxGeometry>
        </mxCell>
        <mxCell id="3HXDtZ4BHIWOM7_SsJX8-25" value="&lt;font style=&quot;font-size: 15px&quot;&gt;渠道充值项配置&lt;/font&gt;" style="text;html=1;align=center;verticalAlign=middle;resizable=0;points=[];autosize=1;" vertex="1" parent="J-hEHQAsKZeQdaMJV9M0-1">
          <mxGeometry x="600" y="140" width="120" height="20" as="geometry" />
        </mxCell>
        <mxCell id="3HXDtZ4BHIWOM7_SsJX8-26" value="&lt;font style=&quot;font-size: 15px&quot;&gt;渠道js版本配置&lt;/font&gt;" style="text;html=1;align=center;verticalAlign=middle;resizable=0;points=[];autosize=1;" vertex="1" parent="J-hEHQAsKZeQdaMJV9M0-1">
          <mxGeometry x="600" y="200" width="120" height="20" as="geometry" />
        </mxCell>
        <mxCell id="3HXDtZ4BHIWOM7_SsJX8-27" value="&lt;font style=&quot;font-size: 15px&quot;&gt;渠道配置缓存&lt;/font&gt;" style="text;html=1;align=center;verticalAlign=middle;resizable=0;points=[];autosize=1;" vertex="1" parent="J-hEHQAsKZeQdaMJV9M0-1">
          <mxGeometry x="600" y="230" width="110" height="20" as="geometry" />
        </mxCell>
        <mxCell id="3HXDtZ4BHIWOM7_SsJX8-28" value="&lt;font style=&quot;font-size: 15px&quot;&gt;渠道签名验证key配置&lt;/font&gt;" style="text;html=1;align=center;verticalAlign=middle;resizable=0;points=[];autosize=1;" vertex="1" parent="J-hEHQAsKZeQdaMJV9M0-1">
          <mxGeometry x="600" y="170" width="160" height="20" as="geometry" />
        </mxCell>
        <mxCell id="3HXDtZ4BHIWOM7_SsJX8-29" value="&lt;font style=&quot;font-size: 15px&quot;&gt;渠道功能开关配置&lt;/font&gt;" style="text;html=1;align=center;verticalAlign=middle;resizable=0;points=[];autosize=1;" vertex="1" parent="J-hEHQAsKZeQdaMJV9M0-1">
          <mxGeometry x="600" y="260" width="140" height="20" as="geometry" />
        </mxCell>
      </root>
    </mxGraphModel>
  </diagram>
</mxfile>
